<?xml version="1.0" encoding="utf-8"?>
<!-- Generator: Adobe Illustrator 24.0.0, SVG Export Plug-In . SVG Version: 6.00 Build 0)  -->
<svg version="1.1" id="Layer_1" xmlns="http://www.w3.org/2000/svg" xmlns:xlink="http://www.w3.org/1999/xlink" x="0px" y="0px"
	 viewBox="0 0 158.5 85.7" style="enable-background:new 0 0 158.5 85.7;" xml:space="preserve">
<style type="text/css">
	.st0{fill:#FFFFFF;stroke:#FFFFFF;stroke-miterlimit:10;}
	.st1{fill:#F39200;}
	.st2{fill:none;stroke:#F39200;stroke-width:2;stroke-miterlimit:10;}
</style>
<g>
	<g>
		<g>
			<path class="st0" d="M11.5,50.6c0.9,0.5,1.7,1.3,2.2,2.3c0.5,1,0.8,2.1,0.8,3.3c0,1.2-0.3,2.3-0.8,3.3c-0.5,1-1.3,1.7-2.2,2.3
				c-0.9,0.5-2,0.8-3.1,0.8c-1.2,0-2.2-0.3-3.2-0.8c-0.9-0.5-1.7-1.3-2.2-2.3c-0.5-1-0.8-2.1-0.8-3.3c0-1.2,0.3-2.3,0.8-3.3
				s1.3-1.7,2.2-2.3c0.9-0.5,2-0.8,3.2-0.8C9.5,49.8,10.5,50.1,11.5,50.6z M6,51.9c-0.7,0.4-1.2,1-1.6,1.7c-0.4,0.7-0.6,1.6-0.6,2.6
				c0,1,0.2,1.9,0.6,2.6c0.4,0.7,0.9,1.3,1.6,1.7c0.7,0.4,1.5,0.6,2.3,0.6c0.9,0,1.6-0.2,2.3-0.6c0.7-0.4,1.2-1,1.6-1.7
				c0.4-0.7,0.6-1.6,0.6-2.6c0-1-0.2-1.9-0.6-2.6c-0.4-0.7-0.9-1.3-1.6-1.7c-0.7-0.4-1.5-0.6-2.3-0.6C7.4,51.3,6.7,51.5,6,51.9z"/>
			<path class="st0" d="M20.1,61.2h4.5v1.3h-6.1V49.9h1.6V61.2z"/>
			<path class="st0" d="M29.6,49.9v12.6H28V49.9H29.6z"/>
			<path class="st0" d="M34.8,49.9l3.8,10.8l3.9-10.8h1.8l-4.6,12.6h-2.1L33,49.9H34.8z"/>
			<path class="st0" d="M49.3,51.3v4.3h4.8v1.2h-4.8v4.4h5.3v1.3h-6.9V49.9h6.9v1.3H49.3z"/>
			<path class="st0" d="M65.2,62.5l-3.3-5.1h-1.8v5.1h-1.6V49.9h4.1c1.4,0,2.5,0.3,3.2,1c0.7,0.7,1.1,1.6,1.1,2.7
				c0,1-0.3,1.8-0.9,2.5c-0.6,0.6-1.4,1-2.5,1.2l3.4,5.2H65.2z M60.1,56.2h2.4c1.8,0,2.8-0.8,2.8-2.4c0-1.6-0.9-2.4-2.8-2.4h-2.4
				V56.2z"/>
			<path class="st0" d="M84,49.9v1.3h-5.5v4.4h4.7v1.3h-4.7v5.6h-1.6V49.9H84z"/>
			<path class="st0" d="M94.3,62.5l-3.3-5.1h-1.8v5.1h-1.6V49.9h4.1c1.4,0,2.5,0.3,3.2,1c0.7,0.7,1.1,1.6,1.1,2.7
				c0,1-0.3,1.8-0.9,2.5c-0.6,0.6-1.4,1-2.5,1.2l3.4,5.2H94.3z M89.3,56.2h2.4c1.8,0,2.8-0.8,2.8-2.4c0-1.6-0.9-2.4-2.8-2.4h-2.4
				V56.2z"/>
			<path class="st0" d="M107.2,59.6h-5.5l-1.1,2.9h-1.7l4.7-12.3h1.8l4.6,12.3h-1.7L107.2,59.6z M106.8,58.3l-2.3-6.3l-2.3,6.3
				H106.8z"/>
			<path class="st0" d="M123.2,62.5h-1.6l-6.5-9.9v9.9h-1.6V49.9h1.6l6.5,9.9v-9.9h1.6V62.5z"/>
			<path class="st0" d="M137,51c1,0.8,1.7,1.8,2.1,3.1h-1.7c-0.3-0.8-0.8-1.5-1.6-2c-0.7-0.5-1.6-0.7-2.6-0.7
				c-0.8,0-1.6,0.2-2.2,0.6c-0.6,0.4-1.2,1-1.5,1.7c-0.4,0.7-0.6,1.6-0.6,2.6c0,1,0.2,1.8,0.6,2.6c0.4,0.7,0.9,1.3,1.5,1.7
				c0.6,0.4,1.4,0.6,2.2,0.6c1,0,1.9-0.2,2.6-0.7c0.7-0.5,1.2-1.2,1.6-2h1.7c-0.4,1.3-1.1,2.3-2.1,3.1c-1,0.8-2.3,1.1-3.8,1.1
				c-1.2,0-2.2-0.3-3.1-0.8s-1.6-1.3-2.1-2.3c-0.5-1-0.8-2.1-0.8-3.3c0-1.2,0.3-2.4,0.8-3.3c0.5-1,1.2-1.7,2.1-2.3
				c0.9-0.5,1.9-0.8,3.1-0.8C134.7,49.8,136,50.2,137,51z"/>
			<path class="st0" d="M144.6,49.9v12.6H143V49.9H144.6z"/>
			<path class="st0" d="M156.5,60.9c-0.3,0.5-0.7,0.9-1.3,1.2c-0.6,0.3-1.3,0.5-2.2,0.5c-0.8,0-1.6-0.2-2.2-0.5
				c-0.6-0.3-1.2-0.7-1.6-1.2c-0.4-0.5-0.6-1.1-0.7-1.8h1.7c0,0.4,0.2,0.7,0.4,1c0.2,0.3,0.5,0.6,0.9,0.8c0.4,0.2,0.9,0.3,1.4,0.3
				c0.7,0,1.3-0.2,1.6-0.6c0.4-0.4,0.6-0.9,0.6-1.5c0-0.5-0.1-0.9-0.4-1.2c-0.3-0.3-0.6-0.6-1-0.8c-0.4-0.2-0.9-0.4-1.6-0.6
				c-0.8-0.3-1.4-0.5-1.9-0.7s-0.9-0.6-1.2-1s-0.5-1.1-0.5-1.8c0-0.7,0.2-1.2,0.5-1.7c0.3-0.5,0.8-0.9,1.4-1.2
				c0.6-0.3,1.3-0.4,2.1-0.4c1.2,0,2.2,0.3,2.9,0.9c0.7,0.6,1.1,1.4,1.3,2.3h-1.7c-0.1-0.5-0.4-0.9-0.8-1.3c-0.4-0.4-1-0.6-1.7-0.6
				c-0.7,0-1.2,0.2-1.6,0.5c-0.4,0.3-0.6,0.8-0.6,1.4c0,0.5,0.1,0.9,0.4,1.2c0.3,0.3,0.6,0.5,1,0.7c0.4,0.2,0.9,0.4,1.6,0.6
				c0.8,0.3,1.5,0.5,2,0.7c0.5,0.2,0.9,0.6,1.3,1.1c0.3,0.5,0.5,1.1,0.5,1.9C156.9,59.8,156.8,60.4,156.5,60.9z"/>
		</g>
		<g>
			<path class="st0" d="M3.5,75.5v9H2.3v-9H3.5z"/>
			<path class="st0" d="M24.4,84.5h-1.2l-4.9-7.1v7.1h-1.2v-9h1.2l4.9,7.1v-7.1h1.2V84.5z"/>
			<path class="st0" d="M43.8,75.5v0.9h-2.7v8.1h-1.2v-8.1h-2.7v-0.9H43.8z"/>
			<path class="st0" d="M57.8,76.4v3.1h3.6v0.9h-3.6v3.1h4v0.9h-5.2v-9h5.2v0.9H57.8z"/>
			<path class="st0" d="M80,84.5l-2.5-3.7h-1.3v3.7H75v-9h3.1c1.1,0,1.9,0.2,2.4,0.7c0.5,0.5,0.8,1.1,0.8,2c0,0.7-0.2,1.3-0.6,1.8
				c-0.4,0.4-1.1,0.7-1.9,0.8l2.6,3.7H80z M76.2,80H78c1.4,0,2.1-0.6,2.1-1.7c0-1.2-0.7-1.7-2.1-1.7h-1.8V80z"/>
			<path class="st0" d="M95.7,75.5v9h-1.2v-9H95.7z"/>
			<path class="st0" d="M115.9,76c0.7,0.4,1.3,0.9,1.7,1.6s0.6,1.5,0.6,2.4c0,0.9-0.2,1.7-0.6,2.4s-1,1.3-1.7,1.6s-1.5,0.6-2.4,0.6
				c-0.9,0-1.7-0.2-2.4-0.6s-1.3-0.9-1.7-1.6s-0.6-1.5-0.6-2.4c0-0.9,0.2-1.7,0.6-2.4s1-1.3,1.7-1.6c0.7-0.4,1.5-0.6,2.4-0.6
				C114.4,75.4,115.2,75.6,115.9,76z M111.8,76.9c-0.5,0.3-0.9,0.7-1.2,1.2c-0.3,0.5-0.4,1.2-0.4,1.9c0,0.7,0.1,1.3,0.4,1.9
				c0.3,0.5,0.7,0.9,1.2,1.2c0.5,0.3,1.1,0.4,1.8,0.4c0.6,0,1.2-0.1,1.7-0.4c0.5-0.3,0.9-0.7,1.2-1.2c0.3-0.5,0.4-1.2,0.4-1.9
				c0-0.7-0.1-1.3-0.4-1.9c-0.3-0.5-0.7-0.9-1.2-1.2c-0.5-0.3-1.1-0.4-1.7-0.4C112.9,76.5,112.3,76.6,111.8,76.9z"/>
			<path class="st0" d="M136.5,84.5l-2.5-3.7h-1.3v3.7h-1.2v-9h3.1c1.1,0,1.9,0.2,2.4,0.7c0.5,0.5,0.8,1.1,0.8,2
				c0,0.7-0.2,1.3-0.6,1.8c-0.4,0.4-1.1,0.7-1.9,0.8l2.6,3.7H136.5z M132.7,80h1.8c1.4,0,2.1-0.6,2.1-1.7c0-1.2-0.7-1.7-2.1-1.7
				h-1.8V80z"/>
			<path class="st0" d="M156.6,83.4c-0.2,0.4-0.5,0.7-1,0.9c-0.4,0.2-1,0.3-1.6,0.3c-0.6,0-1.2-0.1-1.7-0.3
				c-0.5-0.2-0.9-0.5-1.2-0.9c-0.3-0.4-0.5-0.8-0.5-1.3h1.3c0,0.3,0.1,0.5,0.3,0.7s0.4,0.4,0.7,0.6c0.3,0.2,0.6,0.2,1.1,0.2
				c0.5,0,0.9-0.1,1.2-0.4c0.3-0.3,0.4-0.6,0.4-1c0-0.4-0.1-0.7-0.3-0.9s-0.4-0.4-0.7-0.5c-0.3-0.1-0.7-0.3-1.2-0.4
				c-0.6-0.2-1.1-0.4-1.4-0.5c-0.4-0.2-0.7-0.4-0.9-0.7c-0.3-0.3-0.4-0.8-0.4-1.3c0-0.5,0.1-0.9,0.4-1.2c0.2-0.4,0.6-0.6,1-0.8
				s1-0.3,1.6-0.3c0.9,0,1.7,0.2,2.2,0.6c0.5,0.4,0.9,1,1,1.6h-1.3c-0.1-0.4-0.3-0.7-0.6-0.9c-0.3-0.3-0.7-0.4-1.3-0.4
				c-0.5,0-0.9,0.1-1.2,0.4c-0.3,0.2-0.4,0.6-0.4,1c0,0.3,0.1,0.6,0.3,0.9c0.2,0.2,0.4,0.4,0.7,0.5s0.7,0.3,1.2,0.4
				c0.6,0.2,1.1,0.4,1.5,0.5c0.4,0.2,0.7,0.4,0.9,0.8c0.3,0.3,0.4,0.8,0.4,1.4C156.9,82.6,156.8,83,156.6,83.4z"/>
		</g>
		<g>
			<path class="st1" d="M79.6,0.5C79.6,0.5,79.6,0.5,79.6,0.5L79.6,0.5z"/>
			<path class="st1" d="M80.5,20.3h19.7c-0.2-1.6-0.9-3.2-2.1-4.4L84.9,2.7c-1.2-1.2-2.8-1.9-4.4-2.1V20.3z"/>
			<path class="st1" d="M80.5,22.2v19.7c1.6-0.2,3.2-0.9,4.4-2.1l13.2-13.2c1.2-1.2,1.9-2.8,2.1-4.4H80.5z"/>
			<path class="st1" d="M78.6,22.2v-0.9V0.6c-1.6,0.2-3.2,0.9-4.4,2.1L61,15.9c-2.9,2.9-2.9,7.7,0,10.7l13.2,13.2
				c1.2,1.2,2.8,1.9,4.4,2.1V22.2z"/>
		</g>
	</g>
	<line class="st2" x1="2.1" y1="68.7" x2="156.8" y2="68.7"/>
</g>
</svg>
