<svg id="e64fa7fe-a5bf-4b01-8b08-1de95cf79028" data-name="Layer 1" xmlns="http://www.w3.org/2000/svg" viewBox="0 0 154.86 84.13"><defs><style>.eea92b31-b7cd-4c1d-affd-ca67f357d942{fill:#c6c6c6;}.fb77db30-16ac-4380-a758-cf655300ab0c{fill:#f39200;}.be05bbb2-d6e5-469a-a943-fd2922547c8f{fill:none;stroke:#f39200;stroke-miterlimit:10;}</style></defs><title>Oliver-Francis-Logo</title><path class="eea92b31-b7cd-4c1d-affd-ca67f357d942" d="M11.45,50.6a5.83,5.83,0,0,1,2.21,2.3,7.31,7.31,0,0,1,0,6.65,5.93,5.93,0,0,1-2.21,2.29,6.15,6.15,0,0,1-3.14.82,6.29,6.29,0,0,1-3.17-.82,6,6,0,0,1-2.22-2.29,7.31,7.31,0,0,1,0-6.65,5.85,5.85,0,0,1,2.22-2.3,6.29,6.29,0,0,1,3.17-.82A6.15,6.15,0,0,1,11.45,50.6ZM6,51.9a4.13,4.13,0,0,0-1.6,1.71,6.14,6.14,0,0,0,0,5.21A4,4,0,0,0,6,60.54a4.52,4.52,0,0,0,2.33.6,4.43,4.43,0,0,0,2.31-.61,4.16,4.16,0,0,0,1.6-1.72,6.12,6.12,0,0,0,0-5.2,4.2,4.2,0,0,0-1.6-1.71,4.52,4.52,0,0,0-2.31-.6A4.52,4.52,0,0,0,6,51.9Z" transform="translate(-2.08 -0.49)"/><path class="eea92b31-b7cd-4c1d-affd-ca67f357d942" d="M20.06,61.25h4.45v1.26H18.43V49.94h1.63Z" transform="translate(-2.08 -0.49)"/><path class="eea92b31-b7cd-4c1d-affd-ca67f357d942" d="M29.58,49.94V62.51H28V49.94Z" transform="translate(-2.08 -0.49)"/><path class="eea92b31-b7cd-4c1d-affd-ca67f357d942" d="M34.78,49.94l3.83,10.77L42.5,49.94h1.77L39.65,62.51h-2L33,49.94Z" transform="translate(-2.08 -0.49)"/><path class="eea92b31-b7cd-4c1d-affd-ca67f357d942" d="M49.31,51.26v4.3h4.78v1.25H49.31v4.38h5.31v1.32H47.69V49.94h6.93v1.32Z" transform="translate(-2.08 -0.49)"/><path class="eea92b31-b7cd-4c1d-affd-ca67f357d942" d="M65.16,62.51l-3.28-5.13H60.12v5.13H58.49V49.94h4.14a4.48,4.48,0,0,1,3.21,1,3.6,3.6,0,0,1,1.07,2.72,3.54,3.54,0,0,1-.86,2.47,4,4,0,0,1-2.48,1.17L67,62.51Zm-5-6.31h2.37c1.84,0,2.76-.81,2.76-2.42s-.92-2.43-2.76-2.43H60.12Z" transform="translate(-2.08 -0.49)"/><path class="eea92b31-b7cd-4c1d-affd-ca67f357d942" d="M84,49.94v1.32H78.48v4.35h4.65v1.27H78.48v5.63H76.86V49.94Z" transform="translate(-2.08 -0.49)"/><path class="eea92b31-b7cd-4c1d-affd-ca67f357d942" d="M94.34,62.51l-3.28-5.13H89.3v5.13H87.68V49.94h4.13A4.48,4.48,0,0,1,95,51a3.6,3.6,0,0,1,1.07,2.72,3.49,3.49,0,0,1-.86,2.47,4,4,0,0,1-2.47,1.17l3.42,5.18Zm-5-6.31h2.37c1.84,0,2.76-.81,2.76-2.42s-.92-2.43-2.76-2.43H89.3Z" transform="translate(-2.08 -0.49)"/><path class="eea92b31-b7cd-4c1d-affd-ca67f357d942" d="M107.22,59.61h-5.53l-1,2.9H98.89l4.65-12.33h1.84L110,62.51h-1.75Zm-.47-1.27L104.45,52l-2.3,6.35Z" transform="translate(-2.08 -0.49)"/><path class="eea92b31-b7cd-4c1d-affd-ca67f357d942" d="M123.21,62.51h-1.63l-6.52-9.93v9.93h-1.62V49.94h1.62l6.52,10v-10h1.63Z" transform="translate(-2.08 -0.49)"/><path class="eea92b31-b7cd-4c1d-affd-ca67f357d942" d="M137,51a5.79,5.79,0,0,1,2.07,3.1h-1.71a4.15,4.15,0,0,0-1.55-2,4.47,4.47,0,0,0-2.62-.74,4,4,0,0,0-3.74,2.31,5.77,5.77,0,0,0-.56,2.61,5.64,5.64,0,0,0,.56,2.58,4.08,4.08,0,0,0,3.74,2.3,4.47,4.47,0,0,0,2.62-.74,4.18,4.18,0,0,0,1.55-2H139A5.8,5.8,0,0,1,137,61.49a6.15,6.15,0,0,1-3.8,1.13,6,6,0,0,1-3.12-.81,5.68,5.68,0,0,1-2.11-2.26,7.14,7.14,0,0,1-.76-3.31,7.24,7.24,0,0,1,.76-3.34A5.64,5.64,0,0,1,130,50.63a6,6,0,0,1,3.12-.81A6.15,6.15,0,0,1,137,51Z" transform="translate(-2.08 -0.49)"/><path class="eea92b31-b7cd-4c1d-affd-ca67f357d942" d="M144.6,49.94V62.51H143V49.94Z" transform="translate(-2.08 -0.49)"/><path class="eea92b31-b7cd-4c1d-affd-ca67f357d942" d="M156.51,60.91a3.27,3.27,0,0,1-1.3,1.25,4.42,4.42,0,0,1-2.16.48,5.09,5.09,0,0,1-2.22-.46,4,4,0,0,1-1.55-1.24,3.53,3.53,0,0,1-.67-1.81h1.73a2.51,2.51,0,0,0,.37,1,2.33,2.33,0,0,0,.89.84,2.76,2.76,0,0,0,1.4.33,2.23,2.23,0,0,0,1.64-.57,2,2,0,0,0,.57-1.47,1.9,1.9,0,0,0-.4-1.24,2.85,2.85,0,0,0-1-.76,13.26,13.26,0,0,0-1.61-.6A16.46,16.46,0,0,1,150.3,56a3.15,3.15,0,0,1-1.23-1,3,3,0,0,1-.51-1.84,3.23,3.23,0,0,1,.47-1.73,3.17,3.17,0,0,1,1.36-1.16,4.9,4.9,0,0,1,2.07-.41,4.45,4.45,0,0,1,2.94.9,3.45,3.45,0,0,1,1.27,2.3h-1.75a2.36,2.36,0,0,0-.76-1.32,2.43,2.43,0,0,0-1.7-.57,2.33,2.33,0,0,0-1.57.5,1.81,1.81,0,0,0-.58,1.44,1.73,1.73,0,0,0,.38,1.18,2.53,2.53,0,0,0,.95.72c.38.17.91.36,1.57.58a15,15,0,0,1,1.95.75,3.22,3.22,0,0,1,1.26,1.07,3.28,3.28,0,0,1,.52,1.92A3.39,3.39,0,0,1,156.51,60.91Z" transform="translate(-2.08 -0.49)"/><path class="eea92b31-b7cd-4c1d-affd-ca67f357d942" d="M3.49,75.49v9H2.27v-9Z" transform="translate(-2.08 -0.49)"/><path class="eea92b31-b7cd-4c1d-affd-ca67f357d942" d="M24.42,84.52H23.2l-4.91-7.13v7.13H17.07v-9h1.22l4.91,7.15V75.49h1.22Z" transform="translate(-2.08 -0.49)"/><path class="eea92b31-b7cd-4c1d-affd-ca67f357d942" d="M43.79,75.49v1H41.12v8.08H39.9V76.44H37.23v-1Z" transform="translate(-2.08 -0.49)"/><path class="eea92b31-b7cd-4c1d-affd-ca67f357d942" d="M57.83,76.44v3.09h3.59v.89H57.83v3.15h4v1H56.61v-9h5.22v1Z" transform="translate(-2.08 -0.49)"/><path class="eea92b31-b7cd-4c1d-affd-ca67f357d942" d="M80,84.52l-2.47-3.69H76.23v3.69H75v-9h3.11a3.49,3.49,0,0,1,2.42.74,2.53,2.53,0,0,1,.8,2A2.42,2.42,0,0,1,80.7,80a3.05,3.05,0,0,1-1.87.84l2.58,3.73ZM76.23,80H78q2.07,0,2.07-1.74T78,76.51H76.23Z" transform="translate(-2.08 -0.49)"/><path class="eea92b31-b7cd-4c1d-affd-ca67f357d942" d="M95.67,75.49v9H94.45v-9Z" transform="translate(-2.08 -0.49)"/><path class="eea92b31-b7cd-4c1d-affd-ca67f357d942" d="M115.94,76a4.36,4.36,0,0,1,1.66,1.64,5.06,5.06,0,0,1,0,4.78A4.36,4.36,0,0,1,115.94,84a4.79,4.79,0,0,1-2.37.59,4.88,4.88,0,0,1-2.38-.59,4.31,4.31,0,0,1-1.67-1.64,5.06,5.06,0,0,1,0-4.78A4.31,4.31,0,0,1,111.19,76a4.88,4.88,0,0,1,2.38-.59A4.79,4.79,0,0,1,115.94,76Zm-4.12.93a3,3,0,0,0-1.2,1.22,4.22,4.22,0,0,0,0,3.75,3,3,0,0,0,1.2,1.23,3.52,3.52,0,0,0,1.75.43,3.45,3.45,0,0,0,1.74-.43,3.08,3.08,0,0,0,1.21-1.24A3.81,3.81,0,0,0,117,80a3.89,3.89,0,0,0-.43-1.88,3,3,0,0,0-1.21-1.22,3.45,3.45,0,0,0-1.74-.43A3.52,3.52,0,0,0,111.82,76.9Z" transform="translate(-2.08 -0.49)"/><path class="eea92b31-b7cd-4c1d-affd-ca67f357d942" d="M136.48,84.52,134,80.83h-1.33v3.69h-1.22v-9h3.11a3.46,3.46,0,0,1,2.41.74,2.51,2.51,0,0,1,.81,2,2.43,2.43,0,0,1-.65,1.77,3,3,0,0,1-1.86.84l2.57,3.73ZM132.69,80h1.78c1.39,0,2.08-.58,2.08-1.74s-.69-1.74-2.08-1.74h-1.78Z" transform="translate(-2.08 -0.49)"/><path class="eea92b31-b7cd-4c1d-affd-ca67f357d942" d="M156.56,83.37a2.37,2.37,0,0,1-1,.89,3.44,3.44,0,0,1-1.62.35,4,4,0,0,1-1.67-.33,2.94,2.94,0,0,1-1.17-.89,2.45,2.45,0,0,1-.5-1.3h1.3a1.69,1.69,0,0,0,.28.74,1.73,1.73,0,0,0,.67.61,2.26,2.26,0,0,0,1,.23,1.66,1.66,0,0,0,1.23-.41,1.37,1.37,0,0,0,.43-1.05,1.31,1.31,0,0,0-.3-.89,2.27,2.27,0,0,0-.74-.55,10.8,10.8,0,0,0-1.21-.42,11.89,11.89,0,0,1-1.44-.54,2.45,2.45,0,0,1-.93-.74,2.4,2.4,0,0,1,0-2.56,2.28,2.28,0,0,1,1-.84,4,4,0,0,1,1.57-.29,3.46,3.46,0,0,1,2.21.64,2.45,2.45,0,0,1,1,1.65h-1.31a1.72,1.72,0,0,0-.58-1,1.88,1.88,0,0,0-1.27-.41,1.81,1.81,0,0,0-1.18.37,1.4,1.4,0,0,0-.16,1.88,1.89,1.89,0,0,0,.72.51,12.22,12.22,0,0,0,1.18.42,15.12,15.12,0,0,1,1.47.53,2.44,2.44,0,0,1,.94.78,2.24,2.24,0,0,1,.39,1.38A2.29,2.29,0,0,1,156.56,83.37Z" transform="translate(-2.08 -0.49)"/><path class="fb77db30-16ac-4380-a758-cf655300ab0c" d="M79.56.49Z" transform="translate(-2.08 -0.49)"/><path class="fb77db30-16ac-4380-a758-cf655300ab0c" d="M80.5,20.29h19.73A7.53,7.53,0,0,0,98.1,15.9L84.89,2.69A7.53,7.53,0,0,0,80.5.56Z" transform="translate(-2.08 -0.49)"/><path class="fb77db30-16ac-4380-a758-cf655300ab0c" d="M80.5,22.17V41.89a7.47,7.47,0,0,0,4.39-2.13L98.1,26.55a7.5,7.5,0,0,0,2.13-4.38Z" transform="translate(-2.08 -0.49)"/><path class="fb77db30-16ac-4380-a758-cf655300ab0c" d="M78.62,22.17V.56a7.47,7.47,0,0,0-4.38,2.13L61,15.9a7.55,7.55,0,0,0,0,10.65L74.24,39.76a7.41,7.41,0,0,0,4.38,2.13Z" transform="translate(-2.08 -0.49)"/><line class="be05bbb2-d6e5-469a-a943-fd2922547c8f" y1="68.21" x2="154.77" y2="68.21"/></svg>