<?xml version="1.0" encoding="utf-8"?>
<!-- Generator: Adobe Illustrator 24.0.0, SVG Export Plug-In . SVG Version: 6.00 Build 0)  -->
<svg version="1.1" id="Layer_1" xmlns="http://www.w3.org/2000/svg" xmlns:xlink="http://www.w3.org/1999/xlink" x="0px" y="0px"
	 viewBox="0 0 158.5 85.7" style="enable-background:new 0 0 158.5 85.7;" xml:space="preserve">
<style type="text/css">
	.st0{fill:#C6C6C6;stroke:#C6C6C6;stroke-miterlimit:10;}
	.st1{fill:#C6C6C6;}
	.st2{fill:#F39200;}
</style>
<g>
	<g>
		<g>
			<path class="st0" d="M11.5,50.6c0.9,0.5,1.7,1.3,2.2,2.3c0.5,1,0.8,2.1,0.8,3.3c0,1.2-0.3,2.3-0.8,3.3c-0.5,1-1.3,1.7-2.2,2.3
				c-0.9,0.5-2,0.8-3.1,0.8c-1.2,0-2.2-0.3-3.2-0.8c-0.9-0.5-1.7-1.3-2.2-2.3c-0.5-1-0.8-2.1-0.8-3.3c0-1.2,0.3-2.3,0.8-3.3
				s1.3-1.7,2.2-2.3c0.9-0.5,2-0.8,3.2-0.8C9.5,49.8,10.6,50.1,11.5,50.6z M6.1,51.9c-0.7,0.4-1.2,1-1.6,1.7
				c-0.4,0.7-0.6,1.6-0.6,2.6c0,1,0.2,1.9,0.6,2.6c0.4,0.7,0.9,1.3,1.6,1.7c0.7,0.4,1.5,0.6,2.3,0.6c0.9,0,1.6-0.2,2.3-0.6
				c0.7-0.4,1.2-1,1.6-1.7s0.6-1.6,0.6-2.6c0-1-0.2-1.9-0.6-2.6c-0.4-0.7-0.9-1.3-1.6-1.7c-0.7-0.4-1.5-0.6-2.3-0.6
				C7.5,51.3,6.7,51.5,6.1,51.9z"/>
			<path class="st0" d="M20.1,61.2h4.5v1.3h-6.1V49.9h1.6V61.2z"/>
			<path class="st0" d="M29.5,49.9v12.6h-1.6V49.9H29.5z"/>
			<path class="st0" d="M34.6,49.9l3.8,10.8l3.9-10.8h1.8l-4.6,12.6h-2.1l-4.6-12.6H34.6z"/>
			<path class="st0" d="M49.1,51.3v4.3h4.8v1.2h-4.8v4.4h5.3v1.3h-6.9V49.9h6.9v1.3H49.1z"/>
			<path class="st0" d="M64.9,62.5l-3.3-5.1h-1.8v5.1h-1.6V49.9h4.1c1.4,0,2.5,0.3,3.2,1c0.7,0.7,1.1,1.6,1.1,2.7
				c0,1-0.3,1.8-0.9,2.5c-0.6,0.6-1.4,1-2.5,1.2l3.4,5.2H64.9z M59.8,56.2h2.4c1.8,0,2.8-0.8,2.8-2.4c0-1.6-0.9-2.4-2.8-2.4h-2.4
				V56.2z"/>
			<path class="st0" d="M83.5,49.9v1.3H78v4.4h4.7v1.3H78v5.6h-1.6V49.9H83.5z"/>
			<path class="st0" d="M93.8,62.5l-3.3-5.1h-1.8v5.1h-1.6V49.9h4.1c1.4,0,2.5,0.3,3.2,1c0.7,0.7,1.1,1.6,1.1,2.7
				c0,1-0.3,1.8-0.9,2.5c-0.6,0.6-1.4,1-2.5,1.2l3.4,5.2H93.8z M88.8,56.2h2.4c1.8,0,2.8-0.8,2.8-2.4c0-1.6-0.9-2.4-2.8-2.4h-2.4
				V56.2z"/>
			<path class="st0" d="M106.6,59.6h-5.5l-1.1,2.9h-1.7l4.7-12.3h1.8l4.6,12.3h-1.7L106.6,59.6z M106.2,58.3l-2.3-6.3l-2.3,6.3
				H106.2z"/>
			<path class="st0" d="M122.6,62.5h-1.6l-6.5-9.9v9.9h-1.6V49.9h1.6l6.5,9.9v-9.9h1.6V62.5z"/>
			<path class="st0" d="M136.2,51c1,0.8,1.7,1.8,2.1,3.1h-1.7c-0.3-0.8-0.8-1.5-1.6-2s-1.6-0.7-2.6-0.7c-0.8,0-1.6,0.2-2.2,0.6
				c-0.6,0.4-1.2,1-1.5,1.7s-0.6,1.6-0.6,2.6c0,1,0.2,1.8,0.6,2.6c0.4,0.7,0.9,1.3,1.5,1.7c0.6,0.4,1.4,0.6,2.2,0.6
				c1,0,1.9-0.2,2.6-0.7c0.7-0.5,1.2-1.2,1.6-2h1.7c-0.4,1.3-1.1,2.3-2.1,3.1c-1,0.8-2.3,1.1-3.8,1.1c-1.2,0-2.2-0.3-3.1-0.8
				s-1.6-1.3-2.1-2.3c-0.5-1-0.8-2.1-0.8-3.3c0-1.2,0.3-2.4,0.8-3.3c0.5-1,1.2-1.7,2.1-2.3c0.9-0.5,1.9-0.8,3.1-0.8
				C134,49.8,135.2,50.2,136.2,51z"/>
			<path class="st0" d="M143.8,49.9v12.6h-1.6V49.9H143.8z"/>
			<path class="st0" d="M155.7,60.9c-0.3,0.5-0.7,0.9-1.3,1.2c-0.6,0.3-1.3,0.5-2.2,0.5c-0.8,0-1.6-0.2-2.2-0.5
				c-0.6-0.3-1.2-0.7-1.6-1.2c-0.4-0.5-0.6-1.1-0.7-1.8h1.7c0,0.4,0.2,0.7,0.4,1c0.2,0.3,0.5,0.6,0.9,0.8c0.4,0.2,0.9,0.3,1.4,0.3
				c0.7,0,1.3-0.2,1.6-0.6c0.4-0.4,0.6-0.9,0.6-1.5c0-0.5-0.1-0.9-0.4-1.2c-0.3-0.3-0.6-0.6-1-0.8c-0.4-0.2-0.9-0.4-1.6-0.6
				c-0.8-0.3-1.4-0.5-1.9-0.7s-0.9-0.6-1.2-1s-0.5-1.1-0.5-1.8c0-0.7,0.2-1.2,0.5-1.7c0.3-0.5,0.8-0.9,1.4-1.2
				c0.6-0.3,1.3-0.4,2.1-0.4c1.2,0,2.2,0.3,2.9,0.9c0.7,0.6,1.1,1.4,1.3,2.3h-1.7c-0.1-0.5-0.4-0.9-0.8-1.3c-0.4-0.4-1-0.6-1.7-0.6
				c-0.7,0-1.2,0.2-1.6,0.5c-0.4,0.3-0.6,0.8-0.6,1.4c0,0.5,0.1,0.9,0.4,1.2c0.3,0.3,0.6,0.5,1,0.7c0.4,0.2,0.9,0.4,1.6,0.6
				c0.8,0.3,1.5,0.5,2,0.7c0.5,0.2,0.9,0.6,1.3,1.1c0.3,0.5,0.5,1.1,0.5,1.9C156.1,59.8,155.9,60.4,155.7,60.9z"/>
		</g>
		<g>
			<path class="st1" d="M3.2,75.5v9H1.7v-9H3.2z"/>
			<path class="st1" d="M24.1,84.5h-1.5L18,77.8v6.7h-1.5v-9H18l4.6,6.7v-6.7h1.5V84.5z"/>
			<path class="st1" d="M43.5,75.5v1.2h-2.6v7.9h-1.5v-7.9h-2.6v-1.2H43.5z"/>
			<path class="st1" d="M57.6,76.7v2.7h3.5v1.1h-3.5v2.8h3.9v1.2h-5.4v-9h5.4v1.2H57.6z"/>
			<path class="st1" d="M79.4,84.5L77,80.9h-1.1v3.6h-1.5v-9h3.3c1.1,0,1.9,0.3,2.5,0.8c0.6,0.5,0.8,1.2,0.8,2
				c0,0.7-0.2,1.3-0.6,1.7c-0.4,0.5-1,0.7-1.8,0.9l2.5,3.7H79.4z M75.9,79.9h1.7c1.2,0,1.9-0.5,1.9-1.6c0-0.5-0.1-0.9-0.4-1.2
				c-0.3-0.3-0.8-0.4-1.4-0.4h-1.7V79.9z"/>
			<path class="st1" d="M95.4,75.5v9h-1.5v-9H95.4z"/>
			<path class="st1" d="M115.4,76c0.7,0.4,1.3,0.9,1.7,1.6s0.6,1.5,0.6,2.4s-0.2,1.7-0.6,2.4c-0.4,0.7-1,1.3-1.7,1.7
				c-0.7,0.4-1.5,0.6-2.4,0.6c-0.9,0-1.7-0.2-2.4-0.6c-0.7-0.4-1.3-0.9-1.7-1.7c-0.4-0.7-0.6-1.5-0.6-2.4s0.2-1.7,0.6-2.4
				s1-1.3,1.7-1.6c0.7-0.4,1.5-0.6,2.4-0.6C113.9,75.4,114.7,75.6,115.4,76z M111.4,77.1c-0.5,0.3-0.8,0.6-1.1,1.1s-0.4,1.1-0.4,1.7
				s0.1,1.2,0.4,1.7c0.3,0.5,0.6,0.9,1.1,1.1c0.5,0.3,1,0.4,1.6,0.4c0.6,0,1.1-0.1,1.6-0.4c0.5-0.3,0.8-0.6,1.1-1.1
				c0.3-0.5,0.4-1.1,0.4-1.7s-0.1-1.2-0.4-1.7s-0.6-0.9-1.1-1.1c-0.5-0.3-1-0.4-1.6-0.4C112.4,76.7,111.9,76.9,111.4,77.1z"/>
			<path class="st1" d="M135.7,84.5l-2.4-3.6h-1.1v3.6h-1.5v-9h3.3c1.1,0,1.9,0.3,2.5,0.8c0.6,0.5,0.8,1.2,0.8,2
				c0,0.7-0.2,1.3-0.6,1.7s-1,0.7-1.8,0.9l2.5,3.7H135.7z M132.2,79.9h1.7c1.2,0,1.9-0.5,1.9-1.6c0-0.5-0.2-0.9-0.4-1.2
				c-0.3-0.3-0.8-0.4-1.4-0.4h-1.7V79.9z"/>
			<path class="st1" d="M156,83.3c-0.2,0.4-0.6,0.7-1,0.9s-1,0.3-1.7,0.3c-0.6,0-1.2-0.1-1.7-0.3c-0.5-0.2-0.9-0.5-1.2-0.9
				c-0.3-0.4-0.5-0.8-0.5-1.4h1.6c0,0.4,0.2,0.7,0.5,1c0.3,0.3,0.7,0.4,1.2,0.4c0.5,0,0.8-0.1,1.1-0.4s0.4-0.5,0.4-0.9
				c0-0.3-0.1-0.6-0.3-0.8c-0.2-0.2-0.4-0.4-0.7-0.5c-0.3-0.1-0.7-0.3-1.1-0.4c-0.6-0.2-1.1-0.4-1.4-0.5c-0.4-0.2-0.7-0.4-0.9-0.8
				c-0.3-0.3-0.4-0.8-0.4-1.3c0-0.5,0.1-0.9,0.4-1.3c0.2-0.4,0.6-0.7,1.1-0.9c0.5-0.2,1-0.3,1.6-0.3c1,0,1.7,0.2,2.3,0.7
				c0.6,0.4,0.9,1,1,1.7h-1.6c-0.1-0.3-0.2-0.6-0.5-0.9s-0.6-0.4-1.1-0.4c-0.4,0-0.8,0.1-1,0.3c-0.3,0.2-0.4,0.5-0.4,0.9
				c0,0.3,0.1,0.6,0.3,0.8c0.2,0.2,0.4,0.4,0.7,0.5c0.3,0.1,0.6,0.2,1.1,0.4c0.6,0.2,1.1,0.4,1.5,0.5s0.7,0.5,1,0.8
				c0.3,0.4,0.4,0.8,0.4,1.4C156.4,82.6,156.3,83,156,83.3z"/>
		</g>
		<g>
			<path class="st2" d="M79.2,0.5C79.2,0.5,79.2,0.5,79.2,0.5L79.2,0.5z"/>
			<path class="st2" d="M80.1,20.3h19.7c-0.2-1.6-0.9-3.2-2.1-4.4L84.5,2.7c-1.2-1.2-2.8-1.9-4.4-2.1V20.3z"/>
			<path class="st2" d="M80.1,22.2v19.7c1.6-0.2,3.2-0.9,4.4-2.1l13.2-13.2c1.2-1.2,1.9-2.8,2.1-4.4H80.1z"/>
			<path class="st2" d="M78.2,22.2v-0.9V0.6c-1.6,0.2-3.2,0.9-4.4,2.1L60.6,15.9c-2.9,2.9-2.9,7.7,0,10.7l13.2,13.2
				c1.2,1.2,2.8,1.9,4.4,2.1V22.2z"/>
		</g>
	</g>
	<rect x="1.7" y="67.7" class="st2" width="154.8" height="2"/>
</g>
</svg>
